:SAMPLES-PER-SECOND 30
:FULLY-SPECIFIED
:DEGREES
35
root  -41.6759 32.67 6.83205 -24.2394 62.0641 -57.9435
RightUpLeg  7.0224 -6.41513 6.64846
RightLeg  15.0706 31.4508 7.21146
RightFoot  27.0478 -10.9163 29.3301
RightToes  1.74622e-010 -3.18055e-015 8.94531e-016
Spine  34.2064 2.39574 -39.5091
Spine1  -9.33419 -9.41971 2.44505
HEad  -12.2726 33.8457 -7.26457
LeftShoulder1  0 0 -2.47967e-037
LeftArm  -33.8489 -49.363 11.266
LeftForeArm  -14.0302 2.18993 7.14963
LeftHand  -0.18858 2.70428 12.9119
RightShoulder  -2.48481e-017 0 -8.08114e-019
RightArm  -18.6883 9.12736 -12.5872
RightForeArm  -74.1559 0.229047 -16.4677
RightHand  3.36599 -16.6796 -18.3014
LeftUpLeg  -82.0451 10.4602 -10.5397
LeftLeg  47.4381 4.5325 18.5719
LeftFoot  -14.3579 0.130405 20.5091
LeftToes  -1.45516e-011 5.53925e-011 1.30052e-011
36
root  -38.6256 33.3167 6.81139 -29.7275 63.0724 -67.0732
RightUpLeg  6.29103 -14.086 3.05574
RightLeg  13.7071 28.5823 6.26783
RightFoot  27.6992 -11.2969 29.7491
RightToes  1.74622e-010 -3.18055e-015 8.94531e-016
Spine  40.882 6.03759 -42.7303
Spine1  -11.9661 -9.53057 3.04229
HEad  -19.8268 31.1001 -7.09639
LeftShoulder1  0 0 -2.47967e-037
LeftArm  -38.3315 -53.1628 11.8829
LeftForeArm  -16.6032 3.09849 10.1981
LeftHand  0.251807 3.86252 8.05831
RightShoulder  -2.48481e-017 0 -8.08114e-019
RightArm  -18.4037 15.0375 -14.6364
RightForeArm  -70.7121 0.438175 -14.5922
RightHand  3.17895 -16.4174 -17.0713
LeftUpLeg  -80.215 8.91689 -8.67885
LeftLeg  48.7215 3.45921 18.3248
LeftFoot  -17.55 0.591787 17.5701
LeftToes  -1.45516e-011 5.53925e-011 1.30052e-011
37
root  -35.3359 33.9695 6.1891 -35.6929 59.6096 -77.2161
RightUpLeg  7.82638 -22.5619 -2.19894
RightLeg  11.5375 23.127 5.50504
RightFoot  25.2177 -10.8987 30.6484
RightToes  1.74622e-010 -3.18055e-015 8.94531e-016
Spine  44.9402 7.90828 -42.3696
Spine1  -12.8599 -9.10441 0.476712
HEad  -26.719 30.2155 -8.28592
LeftShoulder1  0 0 -2.47967e-037
LeftArm  -40.575 -57.4394 17.943
LeftForeArm  -20.4273 2.77363 9.18527
LeftHand  0.675732 5.08809 1.52661
RightShoulder  -2.48481e-017 0 -8.08114e-019
RightArm  -18.9924 22.0114 -15.7259
RightForeArm  -66.9393 0.0760399 -12.4168
RightHand  2.99537 -16.1812 -15.739
LeftUpLeg  -77.7999 9.51495 -3.79457
LeftLeg  48.1072 2.91542 17.2582
LeftFoot  -21.0194 0.977915 15.5453
LeftToes  -1.45516e-011 5.53925e-011 1.30052e-011
38
root  -32.0157 34.6186 5.29704 -39.0527 54.0959 -84.514
RightUpLeg  11.0171 -23.8713 -8.79155
RightLeg  9.29057 15.0586 4.71028
RightFoot  25.4287 -10.5752 29.657
RightToes  1.74622e-010 -3.18055e-015 8.94531e-016
Spine  47.1706 9.77294 -42.7595
Spine1  -14.1274 -8.41953 -1.27045
HEad  -30.9704 30.2396 -9.35309
LeftShoulder1  0 0 -2.47967e-037
LeftArm  -44.4562 -61.689 24.5693
LeftForeArm  -22.1388 2.39837 7.97846
LeftHand  0.702358 5.45613 2.25292
RightShoulder  -2.48481e-017 0 -8.08114e-019
RightArm  -21.3868 27.9906 -16.1359
RightForeArm  -63.1012 0.512306 -11.8854
RightHand  2.98246 -16.3015 -15.2745
LeftUpLeg  -74.1789 10.5857 3.17167
LeftLeg  46.2555 5.20124 18.4248
LeftFoot  -23.3644 1.06728 12.9776
LeftToes  -1.45516e-011 5.53925e-011 1.30052e-011
39
root  -28.7041 35.3181 4.2731 -42.4538 48.7826 -92.9339
RightUpLeg  14.1868 -20.7716 -14.2383
RightLeg  8.58231 9.67793 3.44821
RightFoot  28.6003 -9.56772 24.7391
RightToes  1.74622e-010 -3.18055e-015 8.94531e-016
Spine  49.7279 11.1656 -42.7413
Spine1  -16.9666 -8.5035 -0.970291
HEad  -33.969 30.0241 -9.06586
LeftShoulder1  0 0 -2.47967e-037
LeftArm  -55.2364 -65.4544 33.2993
LeftForeArm  -21.5207 2.71607 9.02389
LeftHand  0.0818904 4.35435 15.4183
RightShoulder  -2.48481e-017 0 -8.08114e-019
RightArm  -24.2923 32.9544 -17.3846
RightForeArm  -59.7068 0.998223 -11.895
RightHand  2.97631 -16.3642 -15.043
LeftUpLeg  -70.3674 11.0653 9.89363
LeftLeg  42.3481 8.08534 18.4858
LeftFoot  -23.1275 0.800439 10.1772
LeftToes  -1.45516e-011 5.53925e-011 1.30052e-011
40
root  -25.5171 35.929 3.12292 -47.3272 45.1664 -108.307
RightUpLeg  17.0088 -23.0997 -17.3126
RightLeg  10.1587 10.8563 2.42652
RightFoot  29.3166 -8.09714 20.6082
RightToes  1.74622e-010 -3.18055e-015 8.94531e-016
Spine  53.3647 8.08016 -37.8377
Spine1  -20.4653 -11.1681 -0.0462867
HEad  -36.7015 28.4859 -7.62211
LeftShoulder1  0 0 -2.47967e-037
LeftArm  -71.2291 -66.9347 45.2563
LeftForeArm  -17.4079 3.54025 11.6871
LeftHand  -1.33653 1.92071 31.1547
RightShoulder  -2.48481e-017 0 -8.08114e-019
RightArm  -26.5354 38.5449 -21.285
RightForeArm  -58.988 -0.695694 -10.1351
RightHand  2.7458 -15.846 -13.8244
LeftUpLeg  -70.4806 8.99874 15.9912
LeftLeg  33.2747 7.72634 12.7302
LeftFoot  -18.1098 0.286254 8.02159
LeftToes  -1.45516e-011 5.53925e-011 1.30052e-011
41
root  -22.5786 36.2772 2.04995 -49.2701 41.9623 -128.053
RightUpLeg  18.9103 -32.3096 -18.6056
RightLeg  12.5809 15.8201 2.55543
RightFoot  27.7709 -7.03916 18.7124
RightToes  1.74622e-010 -3.18055e-015 8.94531e-016
Spine  52.9347 -0.230018 -28.2537
Spine1  -23.0055 -15.6282 0.289852
HEad  -37.9401 25.4574 -5.94194
LeftShoulder1  0 0 -2.47967e-037
LeftArm  -87.0412 -66.2126 60.663
LeftForeArm  -12.9106 3.76616 12.3941
LeftHand  -2.31233 0.689563 37.1574
RightShoulder  -2.48481e-017 0 -8.08114e-019
RightArm  -29.147 42.3627 -25.8672
RightForeArm  -60.3396 -2.73028 -8.70353
RightHand  2.47773 -15.2452 -12.2328
LeftUpLeg  -76.2531 6.74317 21.7815
LeftLeg  18.4149 5.24828 5.427
LeftFoot  -5.28987 -0.402715 5.77816
LeftToes  -1.45516e-011 5.53925e-011 1.30052e-011
42
root  -19.8172 36.589 1.25879 -45.2954 37.3339 -141.333
RightUpLeg  19.67 -35.343 -19.0955
RightLeg  13.9208 19.0309 3.05531
RightFoot  28.8091 -6.82285 17.661
RightToes  1.74622e-010 -3.18055e-015 8.94531e-016
Spine  46.5681 -5.7811 -21.0992
Spine1  -24.1545 -17.8565 0.0683308
HEad  -37.0545 22.4314 -4.53139
LeftShoulder1  0 0 -2.47967e-037
LeftArm  -99.5039 -64.828 77.4252
LeftForeArm  -12.6998 3.26365 10.719
LeftHand  -2.21695 0.70316 35.6598
RightShoulder  -2.48481e-017 0 -8.08114e-019
RightArm  -32.3023 44.8747 -28.7045
RightForeArm  -61.2794 -3.89433 -8.4858
RightHand  2.39613 -15.1033 -11.585
LeftUpLeg  -81.9272 9.7536 21.6133
LeftLeg  3.29095 3.01931 3.66712
LeftFoot  12.2317 -0.967411 4.26201
LeftToes  -1.45516e-011 5.53925e-011 1.30052e-011
43
root  -17.0203 37.3993 0.451494 -44.0819 32.0425 -147.627
RightUpLeg  23.3796 -25.5999 -20.6184
RightLeg  14.6198 18.6534 3.10737
RightFoot  32.3787 -6.40434 15.1905
RightToes  1.74622e-010 -3.18055e-015 8.94531e-016
Spine  45.2921 -4.65471 -19.7186
Spine1  -25.2828 -17.2254 1.29084
HEad  -35.7799 20.8795 -3.4075
LeftShoulder1  0 0 -2.47967e-037
LeftArm  -107.784 -64.131 87.4783
LeftForeArm  -11.789 2.76929 9.07066
LeftHand  -2.11237 0.790911 34.7834
RightShoulder  -2.48481e-017 0 -8.08114e-019
RightArm  -36.8414 49.2813 -30.3056
RightForeArm  -58.6508 -4.73004 -7.63752
RightHand  2.2914 -14.7504 -11.1489
LeftUpLeg  -81.0306 12.9575 19.6454
LeftLeg  -2.46054 4.23223 5.6714
LeftFoot  24.9022 -1.53859 4.66681
LeftToes  -1.45516e-011 5.53925e-011 1.30052e-011
44
root  -13.9346 38.6374 -0.565679 -46.7237 26.6921 -150.934
RightUpLeg  26.9961 -9.84159 -20.8207
RightLeg  17.5802 15.5911 2.44888
RightFoot  34.7247 -4.45778 9.98853
RightToes  1.74622e-010 -3.18055e-015 8.94531e-016
Spine  49.7777 -0.0669798 -22.6073
Spine1  -26.4267 -14.9106 4.87394
HEad  -35.7731 20.2788 -2.60614
LeftShoulder1  0 0 -2.47967e-037
LeftArm  -114.649 -63.8708 92.7613
LeftForeArm  -8.71678 2.51328 8.19325
LeftHand  -2.41848 0.510205 37.1174
RightShoulder  -2.48481e-017 0 -8.08114e-019
RightArm  -41.7288 54.2287 -30.2349
RightForeArm  -52.6127 -3.85262 -6.94043
RightHand  2.02987 -13.9197 -9.832
LeftUpLeg  -70.922 13.6926 29.6808
LeftLeg  1.44506 12.9864 4.88973
LeftFoot  27.9879 -1.43825 4.02324
LeftToes  -1.45516e-011 5.53925e-011 1.30052e-011
45
root  -10.8141 39.3888 -1.42911 -44.9607 21.4651 -153.779
RightUpLeg  24.4194 0.820382 -20.4924
RightLeg  21.1282 12.0986 1.32267
RightFoot  35.1483 -2.4451 5.41436
RightToes  1.74622e-010 -3.18055e-015 8.94531e-016
Spine  48.7513 2.67846 -25.4185
Spine1  -26.8148 -12.5401 7.88124
HEad  -36.462 19.2355 -1.9911
LeftShoulder1  0 0 -2.47967e-037
LeftArm  -118.95 -63.5389 94.7313
LeftForeArm  -5.17277 2.31978 7.77628
LeftHand  -2.67877 0.254735 38.8584
RightShoulder  -2.48481e-017 0 -8.08114e-019
RightArm  -46.0241 59.0149 -28.9658
RightForeArm  -48.0747 -2.65923 -6.1097
RightHand  2.13482 -14.2156 -10.4544
LeftUpLeg  -62.079 14.9267 34.7628
LeftLeg  5.71562 12.8329 3.49393
LeftFoot  26.1819 -0.666377 2.08265
LeftToes  -1.45516e-011 5.53925e-011 1.30052e-011
46
root  -7.72985 39.5496 -2.15068 -39.4798 14.3716 -157.268
RightUpLeg  16.6155 5.54497 -21.3441
RightLeg  21.9256 9.71631 0.263261
RightFoot  33.8606 -2.1059 4.82779
RightToes  1.74622e-010 -3.18055e-015 8.94531e-016
Spine  42.2935 2.65916 -25.837
Spine1  -25.8757 -9.81047 7.39731
HEad  -36.4567 17.671 -1.09949
LeftShoulder1  0 0 -2.47967e-037
LeftArm  -120.062 -63.5292 94.7079
LeftForeArm  -2.80148 1.14189 7.23895
LeftHand  -2.60823 0.307385 38.2844
RightShoulder  -2.48481e-017 0 -8.08114e-019
RightArm  -50.8902 63.6766 -26.0539
RightForeArm  -47.0684 -3.49165 -5.41975
RightHand  3.25153 -16.6896 -16.9491
LeftUpLeg  -54.7683 20.9995 33.4649
LeftLeg  5.12732 5.15798 2.93606
LeftFoot  25.2419 -0.340295 1.19497
LeftToes  -1.45516e-011 5.53925e-011 1.30052e-011
